<svg id="visual" viewBox="0 0 900 600" width="900" height="600" xmlns="http://www.w3.org/2000/svg" xmlns:xlink="http://www.w3.org/1999/xlink" version="1.1"><rect x="0" y="0" width="900" height="600" fill="#cdb6ef"></rect><path d="M0 493L129 495L257 463L386 467L514 502L643 498L771 491L900 496L900 601L771 601L643 601L514 601L386 601L257 601L129 601L0 601Z" fill="#c8c0fe"></path><path d="M0 504L129 501L257 504L386 482L514 526L643 521L771 507L900 534L900 601L771 601L643 601L514 601L386 601L257 601L129 601L0 601Z" fill="#b0a0ea"></path><path d="M0 530L129 521L257 535L386 535L514 556L643 558L771 527L900 554L900 601L771 601L643 601L514 601L386 601L257 601L129 601L0 601Z" fill="#9a80d4"></path><path d="M0 554L129 577L257 550L386 553L514 549L643 557L771 570L900 553L900 601L771 601L643 601L514 601L386 601L257 601L129 601L0 601Z" fill="#8661bd"></path></svg>